<svg width="200" height="200" viewBox="0 0 200 200" xmlns="http://www.w3.org/2000/svg">
  <!-- 调色板背景 -->
  <ellipse cx="100" cy="110" rx="85" ry="75" fill="#f5f5f5" stroke="#333" stroke-width="2"/>
  
  <!-- 拇指孔 -->
  <ellipse cx="150" cy="130" rx="18" ry="25" fill="white" stroke="#333" stroke-width="2"/>
  
  <!-- 颜料点 -->
  <circle cx="70" cy="70" r="12" fill="#ff6b6b"/>
  <circle cx="110" cy="65" r="12" fill="#4ecdc4"/>
  <circle cx="150" cy="75" r="12" fill="#45b7d1"/>
  <circle cx="60" cy="110" r="12" fill="#96ceb4"/>
  <circle cx="100" cy="105" r="12" fill="#ffeaa7"/>
  <circle cx="80" cy="150" r="12" fill="#dda0dd"/>
  <circle cx="120" cy="145" r="12" fill="#fab1a0"/>
  
  <!-- 画笔 -->
  <g transform="translate(40, 30) rotate(-30)">
    <!-- 笔杆 -->
    <rect x="0" y="0" width="8" height="50" fill="#8b4513" rx="4"/>
    <!-- 笔头金属部分 -->
    <rect x="1" y="48" width="6" height="12" fill="#c0c0c0"/>
    <!-- 笔毛 -->
    <ellipse cx="4" cy="65" rx="3" ry="8" fill="#333"/>
  </g>
  
  <!-- 装饰性小星星 -->
  <g fill="#ffd700" opacity="0.7">
    <polygon points="30,40 32,46 38,46 33,50 35,56 30,52 25,56 27,50 22,46 28,46" transform="scale(0.6)"/>
    <polygon points="170,50 172,56 178,56 173,60 175,66 170,62 165,66 167,60 162,56 168,56" transform="scale(0.5)"/>
    <polygon points="160,170 162,176 168,176 163,180 165,186 160,182 155,186 157,180 152,176 158,176" transform="scale(0.4)"/>
  </g>
  
  <!-- 可爱的表情 -->
  <g transform="translate(100, 110)">
    <!-- 眼睛 -->
    <circle cx="-15" cy="-10" r="3" fill="#333"/>
    <circle cx="15" cy="-10" r="3" fill="#333"/>
    <!-- 嘴巴 -->
    <path d="M -10,5 Q 0,15 10,5" stroke="#333" stroke-width="2" fill="none" stroke-linecap="round"/>
  </g>
</svg>
